<?xml version="1.0" encoding="utf-8"?>
<svg viewBox="4.197 -7.94 500 500" xmlns="http://www.w3.org/2000/svg">
  <defs>
    <radialGradient gradientUnits="userSpaceOnUse" cx="277.996" cy="126.507" r="98.748" id="gradient-1" gradientTransform="matrix(1, 0, 0, 0.91685379, 0.07487068, 5.22848109)">
      <stop offset="0" style="stop-color: rgba(29, 23, 23, 1)"/>
      <stop offset="1" style="stop-color: rgba(0, 0, 0, 1)"/>
    </radialGradient>
  </defs>
  <g style="" transform="matrix(1.96937585, 0, 0, 2.10670376, -295.22293091, 8.25535393)">
    <path style="stroke: url(#gradient-1); fill: rgb(63, 59, 59); paint-order: markers stroke;" d="M 207.457 68.399 C 200.537 75.116 215.369 100.141 220.015 95.631 C 220.015 95.631 179.013 132.864 223.682 148.137 C 266.987 162.945 290.168 176.531 290.285 176.103 C 290.402 175.675 333.486 162.835 364.356 140.619 C 395.226 118.403 367.291 102.067 362.348 93.077 C 357.405 84.086 345.5 76.197 342.068 74.755 C 338.636 73.313 305.712 58.152 285.237 62.739 C 264.762 67.326 237.494 77.028 237.973 76.901 C 238.452 76.772 208.473 66.841 207.457 68.399 Z"/>
    <text style="white-space: pre; fill: rgb(51, 51, 51); font-family: Arial, sans-serif; font-size: 28px;" transform="matrix(0.29487526, 0, 0, 0.27565345, 201.00550842, 10.50796986)">.</text>
    <path style="fill: rgb(216, 216, 216); stroke: rgb(0, 0, 0);" d="M 420.783 172.004 L 418.562 171.907 C 418.562 171.907 406.415 175.049 406.566 174.829"/>
    <path style="stroke: rgb(0, 0, 0); fill: rgb(90, 80, 80); paint-order: stroke markers;" d="M 345.586 75.768 C 345.586 75.768 344.799 75.213 343.216 76.525 C 342.302 77.443 345.025 88.212 347.423 90.361 C 352.195 94.637 359.191 98.046 363.927 97.63 C 365.869 97.335 367.665 95.89 368.923 93.923 C 370.158 91.991 371.166 89.384 371.934 86.684 C 373.468 81.294 374.198 75.116 374.354 71.734"/>
    <path style="stroke: rgb(0, 0, 0); fill: rgb(162, 141, 141); paint-order: stroke markers;" d="M 219.334 100.938 C 219.334 100.938 236.09 84.293 235.289 80.866 C 234.488 77.439 207.564 67.053 207.443 67.364 C 207.322 67.675 201.702 75.881 205.963 85.12 C 210.224 94.358 221.071 101.464 219.334 100.938 Z"/>
    <path style="stroke: rgb(0, 0, 0); fill: rgb(162, 141, 141); paint-order: stroke;" d="M 269.769 157.973 L 275.932 168.882 C 275.932 168.882 274.956 168.558 281.418 172.623 C 287.88 176.688 292.381 175.91 299.971 174.512 C 307.561 173.114 310.512 155.95 309.822 155.292 C 309.132 154.634 301.256 154.833 300.968 154.33 C 300.68 153.827 287.189 158.222 287.068 158.16 C 286.947 158.098 275.479 150.702 275.872 151.417 C 276.265 152.132 268.529 158.29 269.769 157.973 Z"/>
    <path style="stroke: rgb(0, 0, 0); fill: rgb(162, 141, 141); paint-order: stroke markers;" d="M 234.08 95.32 C 234.08 95.32 295.184 100.658 285.814 129.267 C 276.444 157.876 276.644 150.604 276.916 150.604 C 277.188 150.604 288.158 156.782 287.87 156.782 C 287.582 156.782 300.32 152.669 299.353 152.669 C 298.386 152.669 292.002 139.639 293.746 130.582 C 295.49 121.525 288.072 118.753 303.658 107.328 C 319.244 95.903 339.862 96.365 341.236 96.157 C 342.61 95.949 328.516 88.6 288.563 101.524 C 272.156 94.272 246.024 92.404 246.892 93.466"/>
    <path style="stroke: rgb(0, 0, 0); fill: rgb(162, 141, 141); paint-order: stroke markers;" d="M 273.1669921875 160.95660400390625 C 274.4902211822523 163.44225958008906 277.58574786383394 165.35090797316374 280.3292236328125 165.853759765625 C 281.9880417923536 166.1578046178976 285.53976935672017 165.98191894678092 286.9466552734375 165.15708923339844 C 287.6637359048658 164.7366788755542 289.89534361610566 164.70155910904128 289.2434387207031 164.1858367919922 C 287.64378401376763 162.92034908395794 296.919180747557 166.5687255859375 294.8794860839844 166.5687255859375 C 293.62522355011646 166.5687255859375 297.37730449916137 166.33718429077396 298.62646484375 166.2241668701172 C 300.90853250919616 166.01769745853983 303.71407104283253 164.74402830673185 305.80255126953125 163.84234619140625 C 308.1322731551603 162.83651021024644 311.0008544921875 155.59104919433594 311.0008544921875 155.59104919433594"/>
  </g>
  <path style="fill: rgb(216, 216, 216); stroke: rgb(0, 0, 0);" d="M 205.341 246.352 C 229.675 252.672 262.97 286.937 256.225 284.107 C 249.48 281.277 218.791 303.537 204.42 282.715 C 190.049 261.893 167.669 229.847 166.242 229.901"/>
  <path style="fill: rgb(216, 216, 216); stroke: rgb(0, 0, 0); paint-order: stroke markers;" d="M 386.144 235.254 C 385.43 235.588 348.71 215.824 334.339 236.646 C 319.968 257.468 300.507 290.054 296.075 291.579 C 291.643 293.104 305.016 286.553 348.833 265.201" transform="matrix(-1, 0, 0, -1, 681.85928345, 518.78240967)"/>
</svg>